<svg width="166" height="146" fill="none" xmlns="http://www.w3.org/2000/svg"><g filter="url(#filter0_d)"><path d="M6.616 18.283C4.358 11.785 9.183 5 16.062 5h93.84a10 10 0 018.631 4.949l30.54 52.177a10 10 0 01.043 10.028l-30.597 53.333a10.001 10.001 0 01-8.674 5.023H15.971c-6.854 0-11.676-6.737-9.466-13.224L22.48 70.385a10 10 0 00-.02-6.508L6.616 18.283z" fill="#FCD025"/><path d="M98.067 85.453l13.331 18.226c1.24 1.715.789 4.066-1.025 5.256l-5.462 3.584c-1.798 1.193-4.281.766-5.537-.953l-13.33-18.225a3.613 3.613 0 01-.64-2.827l.484-2.522c-6.585 3.278-14.325 4.568-22.215 3.211-18.77-3.228-31.218-20.247-27.81-38.024 3.408-17.776 21.38-29.563 40.147-26.335 18.769 3.228 31.217 20.247 27.809 38.024-1.433 7.473-5.428 13.88-10.983 18.567l2.662.457c1.046.18 1.968.738 2.57 1.561z" stroke="#2B3547" stroke-width="3"/><path fill-rule="evenodd" clip-rule="evenodd" d="M67.319 55.834l7.472 2.123c3.088.878 5.244 3.683 5.244 6.824 0 3.857-3.162 6.988-7.085 7.087v2.535c0 .695-.594 1.258-1.328 1.258h-2.656c-.734 0-1.329-.563-1.329-1.258V71.84a9.84 9.84 0 01-5.208-1.785c-.647-.46-.68-1.379-.094-1.909l1.95-1.763c.46-.415 1.144-.433 1.682-.114a4.147 4.147 0 002.129.585h4.665c1.079 0 1.959-.931 1.959-2.075 0-.935-.6-1.758-1.456-2.001l-7.473-2.123c-3.086-.878-5.242-3.683-5.242-6.823 0-3.856 3.162-6.989 7.085-7.088V44.21c0-.695.594-1.258 1.328-1.258h2.656c.734 0 1.329.563 1.329 1.258v2.562a9.84 9.84 0 015.207 1.785c.648.46.681 1.379.095 1.909l-1.95 1.762c-.46.416-1.144.435-1.682.115a4.142 4.142 0 00-2.129-.585h-4.666c-1.08 0-1.96.931-1.96 2.075 0 .935.6 1.758 1.457 2.001z" fill="#fff"/></g><defs><filter id="filter0_d" x=".963" y="0" width="164.48" height="145.51" filterUnits="userSpaceOnUse" color-interpolation-filters="sRGB"><feFlood flood-opacity="0" result="BackgroundImageFix"/><feColorMatrix in="SourceAlpha" values="0 0 0 0 0 0 0 0 0 0 0 0 0 0 0 0 0 0 127 0"/><feOffset dx="5" dy="5"/><feGaussianBlur stdDeviation="5"/><feColorMatrix values="0 0 0 0 0 0 0 0 0 0 0 0 0 0 0 0 0 0 0.25 0"/><feBlend in2="BackgroundImageFix" result="effect1_dropShadow"/><feBlend in="SourceGraphic" in2="effect1_dropShadow" result="shape"/></filter></defs></svg>