<svg width="166" height="146" fill="none" xmlns="http://www.w3.org/2000/svg"><g filter="url(#filter0_d)"><path d="M6.617 18.283C4.358 11.785 9.183 5 16.062 5h93.841a10 10 0 018.63 4.948l30.539 52.173a9.999 9.999 0 01.044 10.028l-30.597 53.328a10.001 10.001 0 01-8.674 5.023H15.971c-6.853 0-11.676-6.738-9.466-13.225L22.481 70.38a10 10 0 00-.02-6.508L6.617 18.282z" fill="#FCD025"/><path d="M98.282 62.025V46.577l-.875-.854m.875 48.068v9.573H39.25V32h43.982m15.05 61.79l10.795 9.574c2.621 2.306 8.423-2.316 5.743-5.004l-14.152-12.928m-2.386 8.359l-3.024-2.864m-4.672-14.788c.614-3.407-1.755-6.15-6.405-5.734m11.077 20.522a26.775 26.775 0 003.024-2.488c17.309-18.699-9.632-42.464-26.91-24.433-5.695 5.943-6.175 13.26-3.553 19.247m27.439 7.674c-11.332 7.964-23.283 1.816-27.44-7.674m0 0H45.97m19.04 10.126h3.328M83.232 32h.12l14.055 13.723M83.232 32v13.723h14.175m-3.926 39.06C83.35 93.656 65.452 79.457 76.548 68.41c12.02-11.968 29.743 5.152 16.933 16.372z" stroke="#2B3547" stroke-width="3.513"/><path d="M46.086 42.494h31.233m0 9.964H52.376m-3.847 0h-3.766M63.53 62.656H46.07m-.12 10.475h16.383M44.885 93.415l16.693-.085" stroke="#fff" stroke-width="3.513"/></g><defs><filter id="filter0_d" x=".963" y="0" width="164.479" height="145.5" filterUnits="userSpaceOnUse" color-interpolation-filters="sRGB"><feFlood flood-opacity="0" result="BackgroundImageFix"/><feColorMatrix in="SourceAlpha" values="0 0 0 0 0 0 0 0 0 0 0 0 0 0 0 0 0 0 127 0"/><feOffset dx="5" dy="5"/><feGaussianBlur stdDeviation="5"/><feColorMatrix values="0 0 0 0 0 0 0 0 0 0 0 0 0 0 0 0 0 0 0.25 0"/><feBlend in2="BackgroundImageFix" result="effect1_dropShadow"/><feBlend in="SourceGraphic" in2="effect1_dropShadow" result="shape"/></filter></defs></svg>