<svg width="62" height="69" fill="none" xmlns="http://www.w3.org/2000/svg"><path d="M47.94 4.312c6.468-2.125 13.122 2.692 13.122 9.5v32.566a10 10 0 01-5.158 8.75L35.63 66.346a10 10 0 01-9.61.04L5.232 55.111A10 10 0 010 46.32V13.727C0 6.944 6.61 2.129 13.066 4.208L27.74 8.934a10 10 0 006.187-.018L47.94 4.312z" fill="#FCD025"/><path d="M48.207 43.396l-.01-.01a.798.798 0 10-1.13 1.125l.01.011a.795.795 0 001.128.002.798.798 0 00.002-1.128z" fill="#2B3547"/><path d="M49.798 46.056a.798.798 0 10-1.528.46 4.784 4.784 0 01-1.198 4.772 4.792 4.792 0 01-6.77 0 4.756 4.756 0 01-1.402-3.385c0-1.279.498-2.481 1.403-3.385a4.765 4.765 0 014.896-1.158.798.798 0 10.503-1.514 6.35 6.35 0 00-6.41 1.429H15.955v-.572a.798.798 0 00-1.362-.564l-5.199 5.199a.798.798 0 000 1.128l5.2 5.2a.798.798 0 001.361-.565v-.572h23.34a6.362 6.362 0 004.393 1.753 6.376 6.376 0 006.11-8.226zm-11.73 4.878H15.156a.797.797 0 00-.671.367l-3.4-3.399 3.4-3.399c.141.221.39.367.671.367h22.912a6.35 6.35 0 00-.763 3.033c0 1.075.265 2.11.763 3.03zm10.126-21.58l-.01-.01a.798.798 0 10-1.13 1.126l.01.01a.796.796 0 001.128.003.798.798 0 00.002-1.129zm0-14.041l-.01-.01a.798.798 0 10-1.13 1.125l.01.011a.795.795 0 001.128.002.798.798 0 00.002-1.128zm-3.8 1.202a.798.798 0 00-.887.251l-1.644 2.039a.798.798 0 101.242 1.001l.225-.279v2.846a.798.798 0 001.596 0v-5.106a.798.798 0 00-.532-.752zm1.058 18.572h-1.28c.814-.815 1.594-1.85 1.594-2.821 0-1.367-.919-2.285-2.286-2.285a2.288 2.288 0 00-2.285 2.285.798.798 0 001.595 0c0-.38.31-.69.69-.69.608 0 .69.349.69.69 0 .712-1.533 2.181-2.639 2.968a.798.798 0 00.462 1.448h3.46a.798.798 0 00-.001-1.595z" fill="#2B3547"/><path d="M45.65 46.626c0-1.144-.93-2.075-2.074-2.075h-.984a.798.798 0 000 1.596h.984a.48.48 0 010 .957h-.984a.798.798 0 100 1.596h.984a.48.48 0 010 .957h-.984a.798.798 0 000 1.596h.984c1.144 0 2.075-.93 2.075-2.074 0-.482-.166-.925-.441-1.277.275-.352.44-.795.44-1.276zm4.135-14.611a.798.798 0 00-1.528.46 4.784 4.784 0 01-1.197 4.771 4.756 4.756 0 01-3.385 1.402 4.756 4.756 0 01-3.385-1.402 4.756 4.756 0 01-1.402-3.385c0-1.278.497-2.48 1.402-3.385a4.765 4.765 0 014.897-1.157.798.798 0 00.502-1.514 6.35 6.35 0 00-6.403 1.423H22.769v-.572a.798.798 0 00-1.362-.564l-5.2 5.2a.798.798 0 000 1.127l5.2 5.2a.797.797 0 001.362-.565v-.572h16.506a6.337 6.337 0 004.4 1.762 6.341 6.341 0 004.513-1.87 6.377 6.377 0 001.597-6.36zm-11.733 4.872H21.971a.797.797 0 00-.672.367L17.9 33.855l3.4-3.399a.794.794 0 00.671.367h16.088a6.35 6.35 0 00-.767 3.038 6.35 6.35 0 00.76 3.026zm11.733-18.913a.798.798 0 00-1.528.46 4.785 4.785 0 01-1.197 4.77 4.756 4.756 0 01-3.386 1.403 4.755 4.755 0 01-3.385-1.402 4.756 4.756 0 01-1.402-3.385c0-1.279.498-2.481 1.402-3.385a4.765 4.765 0 014.898-1.157.798.798 0 00.502-1.515 6.35 6.35 0 00-6.41 1.43h-7.765v-.572a.798.798 0 00-1.362-.564l-5.2 5.199a.798.798 0 000 1.128l5.2 5.2a.798.798 0 001.362-.565v-.572h7.767a6.337 6.337 0 004.393 1.756 6.34 6.34 0 004.514-1.87 6.376 6.376 0 001.597-6.36zm-19.069 4.878a.797.797 0 00-.671.367l-3.4-3.399 3.4-3.399c.141.221.39.367.671.367h7.339a6.35 6.35 0 00-.763 3.032c0 1.076.265 2.111.763 3.032h-7.339z" fill="#2B3547"/></svg>