<svg width="62" height="69" fill="none" xmlns="http://www.w3.org/2000/svg"><path d="M47.94 4.312c6.468-2.125 13.122 2.692 13.122 9.5v32.566a10 10 0 01-5.158 8.75L35.63 66.346a10 10 0 01-9.61.04L5.232 55.111A10 10 0 010 46.32V13.727C0 6.944 6.61 2.129 13.066 4.208L27.74 8.934a10 10 0 006.187-.018L47.94 4.312z" fill="#FCD025"/><path d="M42.49 37.029l-5.168-3.19a.809.809 0 00-1.1.261.809.809 0 00.26 1.1l5.169 3.189a.805.805 0 001.1-.26.806.806 0 00-.26-1.1zm-8.307-4.986a.805.805 0 00-.779.982.82.82 0 00.362.491.778.778 0 00.415.125.79.79 0 00.68-.38c.312-.507-.08-1.218-.678-1.218zm-8.274 2.016a.823.823 0 00-1.102-.25l-5.137 3.24a.804.804 0 00-.25 1.101c.14.222.41.352.677.36.15.004.3-.03.425-.11l5.137-3.24a.805.805 0 00.25-1.101zm2.026-2.078a.802.802 0 00-.778.622.809.809 0 00.78.976c.37 0 .697-.26.779-.622a.805.805 0 00-.781-.976z" fill="#2B3547"/><path d="M51.096 49.826a.8.8 0 00-1.127-.08c-.852.742-1.64 1.51-2.759 1.819-1.242.343-2.424.072-3.548-.49l4.161-14.002a.8.8 0 00-.352-.91l-3.85-2.333v-6.813a.8.8 0 00-.799-.799h-1.598v-2.397a.799.799 0 00-.799-.799h-2.517v-2.397a.8.8 0 00-.8-.799h-3.874v-5.593a.799.799 0 00-.8-.8h-3.196a.8.8 0 00-.799.8v5.593h-3.875a.799.799 0 00-.8.8v2.396h-2.516a.8.8 0 00-.8.8v2.396h-1.597a.8.8 0 00-.8.8v6.812l-3.85 2.332a.799.799 0 00-.351.911S18 51.04 18.003 51.046c-.071-.238-1.35-.395-1.576-.425-2.326-.3-4.096.865-5.772 2.322a.799.799 0 00-.078 1.127.81.81 0 001.127.079c1.726-1.5 3.673-2.645 5.957-1.503 2.067 1.033 4.206 1.477 6.359.344 1.736-.914 3.41-1.703 5.348-.78l1.992.948a6.046 6.046 0 005.337-.051c1.04-.52 2.098-1.212 3.286-1.294 1.165-.08 2.29.354 3.314.866a6.113 6.113 0 004.386.397c1.337-.381 2.31-1.233 3.334-2.123a.799.799 0 00.08-1.127zm-9.073-22.01v5.045l-8.326-5.044h8.326zM30.037 15.033h1.598v4.794h-1.598v-4.794zm-4.674 6.392H36.31v1.598H25.363v-1.598zm-5.713 6.393h8.326L19.65 32.86v-5.044zm10.387 22.941c0-.142-1.139-.403-1.288-.436a6.17 6.17 0 00-4.144.554c-.915.482-1.797 1.043-2.844 1.178h-.005a4.576 4.576 0 01-1.829-.143l-4.37-14.701 14.48-8.774v22.322zm-7.99-24.54V24.62h17.579v1.598h-17.58zm20.138 24.216c.008-.247-2.24-.245-2.392-.229-1.386.147-2.586.86-3.81 1.473-1.446.723-2.934.515-4.348-.158V28.436l14.48 8.774-3.93 13.224z" fill="#2B3547"/></svg>