<svg width="62" height="69" fill="none" xmlns="http://www.w3.org/2000/svg"><path d="M47.94 4.312c6.468-2.125 13.122 2.692 13.122 9.5v32.566a10 10 0 01-5.158 8.75L35.63 66.346a10 10 0 01-9.61.04L5.232 55.111A10 10 0 010 46.32V13.727C0 6.944 6.61 2.129 13.066 4.208L27.74 8.934a10 10 0 006.187-.018L47.94 4.312z" fill="#FCD025"/><path d="M50.654 43.394c-.638-3.08-3.372-5.402-6.639-5.402a6.787 6.787 0 00-6.78 6.78c0 2.007.878 3.812 2.268 5.054a6.754 6.754 0 006.639 5.407 6.788 6.788 0 006.78-6.78 6.761 6.761 0 00-2.268-5.06zm-12.053 1.378a5.42 5.42 0 015.414-5.415 5.421 5.421 0 015.415 5.415 5.421 5.421 0 01-5.415 5.415 5.42 5.42 0 01-5.414-5.415zm7.54 9.096a5.397 5.397 0 01-4.775-2.856c.814.347 1.71.54 2.65.54 3.458 0 6.318-2.604 6.727-5.954.527.846.814 1.83.814 2.854a5.422 5.422 0 01-5.416 5.416z" fill="#2B3547"/><path d="M47.238 19.79a.682.682 0 10-.974.956 21.791 21.791 0 016.184 13.202 7.032 7.032 0 00-4.864-1.942c-1.92 0-3.712.77-5.016 2.09-.234-5.383-1.398-10.39-3.34-14.272-1.105-2.212-2.402-3.935-3.825-5.119a21.692 21.692 0 018.914 4.283.683.683 0 00.853-1.066 23.219 23.219 0 00-14.547-5.099 23.143 23.143 0 00-16.472 6.823A23.143 23.143 0 007.327 36.12a.682.682 0 001.288.315 5.675 5.675 0 015.049-3.063 5.675 5.675 0 015.047 3.063.682.682 0 001.21 0 5.675 5.675 0 015.05-3.063c1.334 0 2.593.461 3.588 1.272v18.672a1.177 1.177 0 01-2.341.165 2.066 2.066 0 00-2.319-1.773 2.067 2.067 0 00-1.773 2.32 5.323 5.323 0 001.507 3.041 5.28 5.28 0 003.75 1.552 5.31 5.31 0 005.304-5.305V34.643a5.675 5.675 0 013.59-1.272 5.675 5.675 0 015.048 3.063.683.683 0 001.21 0 5.675 5.675 0 015.049-3.063 5.675 5.675 0 015.047 3.063.683.683 0 001.288-.315 23.167 23.167 0 00-6.681-16.33zM13.664 32.005a7.035 7.035 0 00-4.866 1.942c.492-5.038 2.692-9.71 6.318-13.336a21.783 21.783 0 0110.723-5.903c-1.42 1.184-2.717 2.906-3.821 5.115-1.941 3.881-3.105 8.89-3.34 14.272a7.032 7.032 0 00-5.014-2.09zm6.385 1.997c.24-5.135 1.35-9.891 3.19-13.569 1.846-3.693 4.204-5.863 6.702-6.199V34.05a7.032 7.032 0 00-4.97-2.045 7.033 7.033 0 00-4.922 1.997zm7.335 23.252a3.922 3.922 0 01-2.786-1.153 3.95 3.95 0 01-1.119-2.257.7.7 0 011.385-.185 2.542 2.542 0 005.06-.345V36.262a5.7 5.7 0 01.094.172.683.683 0 001.21 0c.03-.058.062-.115.094-.172v17.053a3.943 3.943 0 01-3.938 3.94zm8.893-25.25a7.034 7.034 0 00-4.971 2.046V14.235c2.497.336 4.855 2.506 6.702 6.199 1.839 3.678 2.95 8.434 3.19 13.569a7.032 7.032 0 00-4.92-1.997z" fill="#2B3547"/><path d="M16.978 40.304a6.788 6.788 0 00-6.78 6.78c0 1.455.454 2.842 1.313 4.01a.682.682 0 101.1-.808 5.37 5.37 0 01-1.048-3.202 5.421 5.421 0 015.415-5.415 5.421 5.421 0 015.414 5.415 5.42 5.42 0 01-5.414 5.415 5.411 5.411 0 01-2.53-.627.683.683 0 00-.64 1.206 6.782 6.782 0 003.17.786 6.787 6.787 0 006.78-6.78 6.788 6.788 0 00-6.78-6.78zm27.902 3.873a21.5 21.5 0 01-.314-.114v-1.886c.16.06.27.136.323.176a.592.592 0 00.725-.934 2.553 2.553 0 00-1.048-.467v-.328a.591.591 0 10-1.183 0v.37l-.111.03c-.702.212-1.227.812-1.368 1.565-.13.69.094 1.36.585 1.745.232.182.515.35.894.523v2.504c-.269-.037-.47-.128-.79-.338a.591.591 0 00-.648.99c.563.368.96.497 1.438.538v.369a.591.591 0 101.183 0v-.425c.985-.25 1.616-1.09 1.755-1.92.18-1.066-.4-2.03-1.44-2.398zm-1.66-.774c-.141-.11-.201-.344-.154-.595a.884.884 0 01.317-.532v1.242a2.085 2.085 0 01-.164-.115zm1.934 2.976c-.054.322-.253.66-.588.851v-1.905c.642.27.627.822.588 1.054z" fill="#2B3547"/><path d="M17.842 46.49a22.267 22.267 0 01-.314-.114V44.49c.16.06.27.135.323.176a.591.591 0 00.725-.934 2.555 2.555 0 00-1.048-.467v-.329a.591.591 0 10-1.183 0v.37l-.111.031c-.702.212-1.227.81-1.369 1.564-.13.691.095 1.36.586 1.745.232.183.515.35.894.523v2.505c-.268-.038-.47-.129-.79-.339a.591.591 0 00-.648.99c.563.368.96.497 1.438.539v.368a.591.591 0 101.183 0v-.425c.985-.25 1.616-1.09 1.755-1.92.18-1.066-.4-2.03-1.44-2.398zm-1.66-.774c-.141-.11-.201-.344-.154-.596a.883.883 0 01.317-.532v1.243a2.188 2.188 0 01-.164-.115zm1.934 2.975a1.224 1.224 0 01-.588.852v-1.906c.642.27.627.823.588 1.054z" fill="#2B3547"/></svg>