<svg width="62" height="69" fill="none" xmlns="http://www.w3.org/2000/svg"><path d="M53.05 2.633c3.949-1.298 8.012 1.644 8.012 5.8v40.24a6.106 6.106 0 01-3.15 5.343L33.764 67.38a6.106 6.106 0 01-5.869.025l-24.7-13.4A6.106 6.106 0 010 48.639V8.382C0 4.24 4.036 1.3 7.978 2.57l20.968 6.753a6.106 6.106 0 003.778-.011l20.326-6.68z" fill="#FCD025"/><path d="M45.43 45.156l10.136-10.087H44.465V14.655H16.952v6.411m0 14.003H4.885l25.507 25.382 9.17-9.126m-5.475-22.74c0-2.576-1.952-3.712-3.861-3.598M25.64 37.231c.006 2.735 2.296 4.04 4.586 4.01m0 0c2.29-.032 4.58-1.4 4.585-4.01.006-2.883-1.206-4.083-3.861-4.083-2.896 0-4.344-.961-4.344-4.564 0-2.232 1.79-3.487 3.62-3.596m0 16.252v2.955m0-19.207V21.62m-13.274 6.448v-.59" stroke="#2B3547" stroke-width="2.263" stroke-linecap="round" stroke-linejoin="round"/></svg>