<svg width="81" height="76" fill="none" xmlns="http://www.w3.org/2000/svg"><path d="M61.282 32.025V16.577l-.875-.854m.875 48.068v9.573H2.25V2h43.982m15.05 61.79l10.795 9.574c2.62 2.306 8.423-2.316 5.743-5.004L63.668 55.432m-2.386 8.359l-3.024-2.864m-4.672-14.788c.614-3.407-1.755-6.15-6.405-5.734m11.077 20.521a26.775 26.775 0 003.024-2.487C78.59 39.74 51.65 15.975 34.372 34.006c-5.695 5.943-6.175 13.26-3.553 19.247m27.439 7.673c-11.332 7.965-23.283 1.817-27.44-7.673m0 0H8.97m19.04 10.126h3.328M46.232 2h.12l14.055 13.723M46.232 2v13.723h14.175m-3.926 39.06C46.35 63.656 28.452 49.457 39.548 38.41c12.02-11.968 29.743 5.152 16.933 16.372z" stroke="#2B3547" stroke-width="3.513"/><path d="M9.086 12.494h31.233m0 9.964H15.376m-3.847 0H7.763M26.53 32.656H9.07M8.95 43.13h16.383M7.885 63.415l16.693-.085" stroke="#fff" stroke-width="3.513"/></svg>