<svg width="38" height="34" fill="none" xmlns="http://www.w3.org/2000/svg"><path d="M29.8 22.312l7.2-7.048h-7.886V1H9.571v4.48m0 9.784H1L19.118 33l6.514-6.377m-3.89-15.89c0-1.8-1.386-2.593-2.742-2.513m-3.257 8.555c.004 1.91 1.63 2.823 3.257 2.801m0 0c1.627-.021 3.253-.977 3.257-2.801.004-2.014-.857-2.853-2.743-2.853-2.057 0-3.085-.672-3.085-3.189 0-1.56 1.272-2.437 2.571-2.513m0 11.356v2.065M19 8.22V5.867m-9.429 4.505V9.96" stroke="#FCD025" stroke-width="2" stroke-linecap="round" stroke-linejoin="round"/></svg>