<svg width="87" height="31" fill="none" xmlns="http://www.w3.org/2000/svg"><path d="M80.143 0h6.143c0 1.143-.429 1.821-1.857 2.714-2.286 1.429-2.381 3.429 0 4.857 2.857 1.715 2.7 3.572 0 5.429-2.286 1.571-2 3.429 0 4.857 3.069 2.192 2.535 3.743 0 5.572-1.981 1.428-1.905 3.714 0 4.857 1.428.857 1.954 1.364 2 2.714h-6.286c-3.286 0-7.572-3.857-7.572-7.571V7.57C72.571 4 76.714 0 80.143 0zM6.392 0H.25c0 1.143.429 1.821 1.857 2.714 2.286 1.429 2.381 3.429 0 4.857-2.857 1.715-2.7 3.572 0 5.429 2.286 1.571 2 3.429 0 4.857-3.069 2.192-2.535 3.743 0 5.572 1.982 1.428 1.905 3.714 0 4.857C.679 29.143.153 29.65.107 31h6.286c3.286 0 7.572-3.857 7.572-7.571V7.57C13.964 4 9.82 0 6.392 0z" fill="#fff"/><path fill-rule="evenodd" clip-rule="evenodd" d="M70.286 23.571V7.714C70.286 4 66.714 0 62.428 0H24c-4 0-7.714 3.714-7.714 7.714v15.429c0 3.286 3.571 7.857 7.857 7.857h38.714c3.857 0 7.429-4 7.429-7.429zM35.428 7.43h14.715l3-3c.427-.573.143-1.43-.715-1.43H33.572c-1 0-1.142.714-.714 1.286l2.572 3.143zm18 15.285c.195-5.69.198-8.88 0-14.571 1.1-1.174 1.75-1.804 3-2.857.43-.361 1.193-.068 1.286.857.744 7.397.666 11.485 0 18.714-.06.65-.91 1.143-1.428.714-1.286-1.063-1.949-1.676-2.858-2.857zm-18 1h14.715l3 3c.428.429 0 1.429-.715 1.429H33.572c-1 0-1.142-.714-.714-1.286l2.572-3.143zm-2.756-1c-.195-5.69-.198-8.88 0-14.571-1.1-1.174-1.75-1.804-3-2.857-.429-.361-1.193-.068-1.286.857-.744 7.397-.666 11.485 0 18.714.06.65.91 1.143 1.428.714 1.286-1.063 1.949-1.676 2.858-2.857z" fill="#FCD025"/></svg>