<svg width="88" height="88" fill="none" xmlns="http://www.w3.org/2000/svg"><g filter="url(#filter0_d)"><circle cx="44" cy="40" r="40" fill="url(#paint0_linear)"/><path d="M59.165 20h-29.33C26.523 20 24 22.523 24 25.835v29.33C24 58.477 26.523 61 29.835 61h29.33C62.477 61 65 58.477 65 55.165v-29.33C65 22.523 62.477 20 59.165 20zM44.5 52.8c6.78 0 12.3-5.361 12.3-11.827 0-1.104-.158-2.365-.473-3.312h3.47v16.716c0 .788-.632 1.577-1.578 1.577H30.781c-.789 0-1.577-.63-1.577-1.577V37.504h3.627a12.004 12.004 0 00-.473 3.311C32.2 47.438 37.719 52.8 44.5 52.8zm0-4.73c-4.415 0-7.885-3.47-7.885-7.728 0-4.257 3.47-7.727 7.885-7.727 4.415 0 7.885 3.47 7.885 7.727 0 4.416-3.47 7.727-7.885 7.727zm15.139-16.874a1.75 1.75 0 01-1.735 1.735h-4.416a1.75 1.75 0 01-1.734-1.735v-4.258a1.75 1.75 0 011.735-1.734h4.415a1.75 1.75 0 011.734 1.735v4.257z" fill="#fff"/></g><defs><linearGradient id="paint0_linear" x1="21" y1="71" x2="74" y2="16" gradientUnits="userSpaceOnUse"><stop stop-color="#EEA054"/><stop offset=".503" stop-color="#D64763"/><stop offset="1" stop-color="#B62A99"/></linearGradient><filter id="filter0_d" x="0" y="0" width="88" height="88" filterUnits="userSpaceOnUse" color-interpolation-filters="sRGB"><feFlood flood-opacity="0" result="BackgroundImageFix"/><feColorMatrix in="SourceAlpha" values="0 0 0 0 0 0 0 0 0 0 0 0 0 0 0 0 0 0 127 0"/><feOffset dy="4"/><feGaussianBlur stdDeviation="2"/><feColorMatrix values="0 0 0 0 0 0 0 0 0 0 0 0 0 0 0 0 0 0 0.25 0"/><feBlend in2="BackgroundImageFix" result="effect1_dropShadow"/><feBlend in="SourceGraphic" in2="effect1_dropShadow" result="shape"/></filter></defs></svg>