<svg width="35" height="34" fill="none" xmlns="http://www.w3.org/2000/svg"><path d="M32.097 22.647a5.031 5.031 0 00-4.918-4.002 5.028 5.028 0 00-5.023 5.023 5.01 5.01 0 001.68 3.744 5.003 5.003 0 004.918 4.005 5.029 5.029 0 005.023-5.023c0-1.438-.61-2.793-1.68-3.747zm-8.93 1.02c0-2.211 1.8-4.01 4.012-4.01a4.015 4.015 0 014.011 4.01c0 2.212-1.8 4.012-4.011 4.012a4.016 4.016 0 01-4.012-4.011zm5.587 6.739c-1.52 0-2.858-.84-3.538-2.116a4.98 4.98 0 001.963.4 5.029 5.029 0 004.984-4.41c.39.627.603 1.356.603 2.114 0 2.212-1.8 4.012-4.012 4.012z" fill="#FCD025"/><path d="M29.566 5.16a.506.506 0 10-.721.71 16.144 16.144 0 014.58 9.78 5.21 5.21 0 00-3.603-1.44 5.21 5.21 0 00-3.716 1.55c-.173-3.989-1.036-7.698-2.473-10.574-.82-1.638-1.78-2.914-2.834-3.792 2.397.53 4.638 1.6 6.603 3.173a.506.506 0 00.632-.79A17.203 17.203 0 0017.258 0c-4.61 0-8.944 1.795-12.203 5.055A17.145 17.145 0 000 17.258a.506.506 0 00.954.233 4.204 4.204 0 013.74-2.27c1.577 0 3.01.87 3.74 2.27a.506.506 0 00.896 0 4.204 4.204 0 013.74-2.27c.989 0 1.921.343 2.659.943v13.833a.872.872 0 01-1.735.122 1.53 1.53 0 00-1.718-1.314 1.53 1.53 0 00-1.313 1.718c.113.847.51 1.647 1.116 2.254a3.91 3.91 0 002.779 1.15 3.934 3.934 0 003.929-3.93V16.164c.737-.6 1.67-.942 2.659-.942 1.577 0 3.01.87 3.74 2.27a.506.506 0 00.896 0 4.204 4.204 0 013.74-2.27c1.577 0 3.01.87 3.74 2.27a.506.506 0 00.953-.234c0-4.553-1.757-8.85-4.95-12.097zM4.694 14.21a5.21 5.21 0 00-3.605 1.44 16.124 16.124 0 014.68-9.88 16.137 16.137 0 017.945-4.373c-1.053.877-2.013 2.153-2.831 3.79-1.438 2.875-2.3 6.584-2.474 10.572a5.21 5.21 0 00-3.715-1.548zm4.73 1.48c.178-3.804 1.001-7.327 2.363-10.052 1.368-2.735 3.115-4.343 4.965-4.592v14.68a5.21 5.21 0 00-3.682-1.515 5.21 5.21 0 00-3.646 1.48zm5.434 17.225a2.905 2.905 0 01-2.064-.854 2.926 2.926 0 01-.829-1.671.519.519 0 011.027-.138 1.883 1.883 0 003.748-.255V17.364l.07.127a.506.506 0 00.896 0l.07-.127v12.633a2.921 2.921 0 01-2.918 2.918zm6.588-18.704a5.21 5.21 0 00-3.683 1.515V1.046c1.85.249 3.597 1.857 4.965 4.592 1.362 2.725 2.185 6.248 2.363 10.052a5.21 5.21 0 00-3.645-1.48z" fill="#FCD025"/><path d="M7.15 20.357a5.029 5.029 0 00-5.024 5.023c0 1.078.337 2.105.973 2.971a.506.506 0 00.815-.598 3.978 3.978 0 01-.777-2.373c0-2.212 1.8-4.011 4.012-4.011 2.212 0 4.011 1.8 4.011 4.011a4.016 4.016 0 01-5.885 3.547.506.506 0 00-.474.893 5.024 5.024 0 007.37-4.44 5.028 5.028 0 00-5.022-5.023zm20.67 2.87a17.266 17.266 0 01-.233-.084v-1.397c.118.044.2.1.239.13a.438.438 0 10.537-.692 1.893 1.893 0 00-.776-.346v-.243a.438.438 0 00-.877 0v.274a1.478 1.478 0 00-1.096 1.182c-.096.512.07 1.007.434 1.293.172.134.382.258.662.387v1.855c-.199-.028-.347-.095-.585-.25a.438.438 0 00-.48.733c.417.273.71.368 1.065.399v.273a.438.438 0 00.877 0v-.315c.73-.185 1.197-.808 1.3-1.422.133-.79-.296-1.504-1.068-1.777zm-1.231-.573c-.104-.082-.149-.255-.114-.441a.654.654 0 01.235-.394v.92a1.57 1.57 0 01-.121-.085zm1.434 2.204a.908.908 0 01-.436.631v-1.412c.475.2.464.61.436.781z" fill="#FCD025"/><path d="M7.79 24.94a15.868 15.868 0 01-.233-.084v-1.398c.118.045.2.101.239.131a.438.438 0 00.537-.692 1.893 1.893 0 00-.776-.346v-.243a.438.438 0 10-.877 0v.274a1.478 1.478 0 00-1.096 1.182c-.096.512.07 1.007.434 1.292.172.135.382.259.662.387V27.3c-.198-.028-.347-.095-.585-.25a.438.438 0 00-.48.733c.417.272.71.368 1.065.398v.273a.438.438 0 10.877 0v-.314c.73-.185 1.197-.808 1.3-1.422.133-.79-.296-1.504-1.067-1.777zm-1.23-.573c-.105-.082-.15-.255-.114-.441a.654.654 0 01.234-.394v.92a1.602 1.602 0 01-.12-.085zm1.433 2.204a.908.908 0 01-.436.631V25.79c.475.2.465.61.436.781z" fill="#FCD025"/></svg>