<svg width="31" height="31" fill="none" xmlns="http://www.w3.org/2000/svg"><path d="M29.588 22.703l-.008-.008a.604.604 0 10-.857.854l.008.008a.603.603 0 00.855.001.604.604 0 00.002-.855z" fill="#FCD025"/><path d="M30.793 24.72a.605.605 0 10-1.158.348 3.625 3.625 0 01-.907 3.615 3.632 3.632 0 01-5.13 0 3.604 3.604 0 01-1.062-2.565c0-.969.377-1.88 1.062-2.565a3.61 3.61 0 013.71-.877.604.604 0 10.382-1.147 4.812 4.812 0 00-4.857 1.083H5.15v-.434a.605.605 0 00-1.032-.427l-3.94 3.94a.605.605 0 000 .854l3.94 3.94a.605.605 0 001.032-.428v-.433h17.684a4.821 4.821 0 003.33 1.328 4.832 4.832 0 004.63-6.233zm-8.888 3.695H4.545a.604.604 0 00-.51.278L1.46 26.118l2.575-2.576a.604.604 0 00.51.279h17.36a4.81 4.81 0 00-.578 2.297c0 .815.2 1.6.578 2.297zm7.673-16.352l-.008-.008a.605.605 0 00-.856.854l.008.008a.602.602 0 00.855.001.604.604 0 00.001-.855zm0-10.639l-.008-.008a.605.605 0 00-.856.853l.008.008a.602.602 0 00.855.002.604.604 0 00.001-.855zm-2.88.911a.604.604 0 00-.672.19L24.781 4.07a.604.604 0 10.941.759l.17-.211v2.156a.605.605 0 001.21 0v-3.87a.604.604 0 00-.404-.57zm.802 14.072h-.97c.617-.617 1.208-1.401 1.208-2.137 0-1.036-.696-1.732-1.732-1.732-.955 0-1.732.777-1.732 1.732a.605.605 0 001.21 0c0-.288.234-.523.522-.523.46 0 .523.264.523.523 0 .54-1.162 1.653-2 2.248a.605.605 0 00.35 1.098H27.5a.605.605 0 000-1.209z" fill="#FCD025"/><path d="M27.65 25.15c0-.866-.704-1.57-1.571-1.57h-.746a.605.605 0 000 1.208h.746a.363.363 0 010 .726h-.746a.605.605 0 000 1.209h.746a.363.363 0 010 .725h-.746a.605.605 0 000 1.209h.746c.867 0 1.572-.705 1.572-1.572 0-.364-.126-.7-.335-.967a1.56 1.56 0 00.335-.967zm3.133-11.07a.605.605 0 00-1.157.348 3.625 3.625 0 01-.908 3.616 3.604 3.604 0 01-2.564 1.062c-.97 0-1.88-.377-2.566-1.062a3.604 3.604 0 01-1.062-2.565c0-.97.377-1.88 1.063-2.565a3.61 3.61 0 013.71-.877.605.605 0 00.381-1.148 4.812 4.812 0 00-4.852 1.079H10.312v-.433a.605.605 0 00-1.032-.428l-3.94 3.94a.605.605 0 000 .855l3.94 3.94a.604.604 0 001.032-.428v-.434H22.82a4.802 4.802 0 003.334 1.335 4.805 4.805 0 003.42-1.417 4.832 4.832 0 001.21-4.818zm-8.89 3.691H9.708a.604.604 0 00-.51.279l-2.575-2.576L9.2 12.9a.604.604 0 00.509.278h12.19a4.81 4.81 0 00-.58 2.302c0 .813.199 1.596.575 2.292zM30.784 3.44a.605.605 0 00-1.158.349 3.625 3.625 0 01-.908 3.615 3.604 3.604 0 01-2.564 1.062c-.97 0-1.88-.377-2.565-1.062a3.604 3.604 0 01-1.063-2.565 3.6 3.6 0 011.063-2.565 3.61 3.61 0 013.71-.877A.605.605 0 1027.68.25a4.812 4.812 0 00-4.857 1.083h-5.884V.9a.605.605 0 00-1.032-.428l-3.94 3.94a.604.604 0 000 .855l3.94 3.94a.604.604 0 001.032-.428v-.434h5.886a4.802 4.802 0 003.328 1.33 4.805 4.805 0 003.42-1.416 4.832 4.832 0 001.21-4.819zm-14.45 3.696a.604.604 0 00-.508.279L13.25 4.839l2.576-2.575a.604.604 0 00.509.278h5.56a4.811 4.811 0 00-.578 2.297c0 .816.201 1.6.579 2.297h-5.561z" fill="#FCD025"/></svg>