<svg version="1.1" id="Capa_1" xmlns="http://www.w3.org/2000/svg" x="0" y="0" viewBox="0 0 512.001 512.001" xml:space="preserve"><path d="M396.51 175.386c-5.36-44.699-25.056-85.189-56.96-117.094-77.725-77.724-204.19-77.722-281.916 0C25.809 90.12 6.125 130.507.711 175.087a7.288 7.288 0 006.357 8.113 7.283 7.283 0 008.114-6.356C20.198 135.53 38.443 98.1 67.943 68.599c72.038-72.04 189.258-72.042 261.3 0 29.572 29.572 47.828 67.099 52.796 108.523a7.288 7.288 0 1014.471-1.736zm109.119 273.309l-88.907-88.907c-6.506-6.505-16.481-7.438-24.006-2.838l-36.108-36.108c21.92-28.327 35.603-61.705 39.916-97.834a7.289 7.289 0 00-6.373-8.101c-3.989-.474-7.623 2.377-8.1 6.373-4.231 35.447-18.199 68.036-40.655 95.242-.062.069-.129.133-.189.205a189.123 189.123 0 01-8.698 9.817l-.243.259a181.735 181.735 0 01-2.902 2.974l-.12.123a187.388 187.388 0 01-3.229 3.148 198.46 198.46 0 01-2.456 2.285c-.265.243-.526.492-.791.733a185.6 185.6 0 01-2.846 2.524c-.172.15-.341.303-.513.452a191.33 191.33 0 01-2.707 2.29C244.187 401.7 135.942 397.898 67.945 329.9c-29.474-29.474-47.715-66.869-52.75-108.143a7.287 7.287 0 10-14.468 1.765c5.434 44.537 25.113 84.886 56.911 116.684 38.863 38.862 89.91 58.293 140.957 58.293 42.943 0 85.884-13.755 121.572-41.256l36.126 36.126a19.401 19.401 0 00-2.884 10.189 19.416 19.416 0 005.724 13.82l88.907 88.907c3.811 3.811 8.816 5.716 13.821 5.716s10.01-1.905 13.821-5.716l29.949-29.95c7.618-7.62 7.618-20.02-.002-27.64zM331.423 347.886l.106-.097a200.623 200.623 0 003.612-3.319c.161-.151.326-.299.486-.45 1.321-1.251 2.63-2.52 3.924-3.814a207.595 207.595 0 003.675-3.782l.49-.521a206.833 206.833 0 003.517-3.822l34.778 34.777-15.807 15.808-34.781-34.78zm163.899 118.142l-29.949 29.95a4.974 4.974 0 01-7.026 0l-88.907-88.907c-.939-.939-1.456-2.186-1.456-3.514s.517-2.575 1.456-3.513l1.918-1.918 26.114-26.114a.022.022 0 00.004-.005l1.913-1.913c.968-.968 2.24-1.453 3.513-1.453s2.545.484 3.513 1.453l88.907 88.907a4.975 4.975 0 010 7.027z"/><path d="M316.813 81.03c-65.188-65.188-171.253-65.186-236.439 0s-65.186 171.252 0 236.439c32.594 32.593 75.407 48.89 118.219 48.89 42.813 0 85.626-16.296 118.22-48.89 65.186-65.186 65.186-171.252 0-236.439zm-10.307 226.132c-59.502 59.503-156.323 59.504-215.824 0-59.503-59.503-59.503-156.322 0-215.825 29.751-29.752 68.832-44.627 107.912-44.627 39.081 0 78.162 14.875 107.913 44.627 59.502 59.503 59.502 156.321-.001 215.825z"/><path fill="#fff" d="M212.295 187.327l-1.31-.481v-56.313l2.143.153c11.544.825 18.642 4.377 23.826 6.971 2.951 1.476 5.281 2.642 7.225 2.642 6.63 0 9.438-9.169 9.438-12.817 0-6.015-7.265-9.877-13.36-12.057-7.356-2.632-17.573-4.374-27.329-4.661l-1.941-.057v-8.96c0-1.754-2.73-3.979-5.798-3.979-3.421 0-5.539 2.065-5.539 3.979v9.339l-1.791.188c-14.312 1.507-47.599 9.04-47.599 46.361 0 31.976 25.533 41.055 48.06 49.065l1.33.473v64.662l-2.156-.169c-17.249-1.353-26.46-9.189-33.186-14.911-3.519-2.994-6.299-5.359-8.77-5.359-5.034 0-9.957 7.339-9.957 12.817 0 11.348 20.296 28.161 52.101 28.674l1.968.032v10.026c0 1.914 2.118 3.979 5.539 3.979 3.068 0 5.797-2.225 5.796-3.978v-10.579l1.725-.24c13.827-1.92 25.237-7.325 32.997-15.631 8.354-8.94 12.589-21.032 12.589-35.937 0-33.508-22.725-44.67-46.001-53.232zm-11.085-3.925l-2.706-1.021c-13.833-5.22-26.249-11.238-26.249-27.346 0-13.399 9.235-21.636 26.707-23.819l2.248-.281v52.467zm10.581 87.717l-2.364.438V211.27l2.788 1.195c11.91 5.104 24.087 12.773 24.087 30.952 0 14.937-8.705 24.775-24.511 27.702z"/></svg>