<svg width="28" height="28" fill="none" xmlns="http://www.w3.org/2000/svg"><path d="M27.254 24.36a.535.535 0 00-.754-.052c-.57.495-1.099 1.01-1.847 1.216-.832.23-1.622.049-2.375-.328l2.785-9.372a.535.535 0 00-.235-.61l-2.577-1.561v-4.56a.535.535 0 00-.535-.535h-1.07V6.953a.535.535 0 00-.535-.535h-1.685V4.814a.535.535 0 00-.534-.535h-2.595V.535A.535.535 0 0014.762 0h-2.139a.535.535 0 00-.535.535v3.744H9.494a.535.535 0 00-.535.535v1.604H7.274a.535.535 0 00-.535.535v1.605H5.67a.535.535 0 00-.534.535v4.56l-2.577 1.561a.535.535 0 00-.236.61l2.78 9.353c-.047-.16-.903-.264-1.055-.284-1.557-.202-2.741.578-3.863 1.554a.535.535 0 00-.053.755c.185.212.53.248.755.052 1.156-1.005 2.459-1.77 3.988-1.006 1.383.692 2.815.988 4.256.23 1.162-.611 2.283-1.14 3.58-.522l1.333.635c1.14.543 2.443.53 3.573-.034.696-.348 1.404-.812 2.2-.866.779-.054 1.532.236 2.217.58a4.092 4.092 0 002.936.265c.896-.255 1.547-.825 2.232-1.421a.535.535 0 00.053-.755zM21.181 9.628v3.377l-5.573-3.377h5.573zM13.158 1.07h1.07v3.209h-1.07v-3.21zm-3.13 4.279h7.329v1.07h-7.328v-1.07zM6.206 9.628h5.573l-5.573 3.377V9.628zm6.953 15.357c0-.095-.763-.27-.862-.292a4.13 4.13 0 00-2.774.37c-.613.323-1.204.699-1.904.789h-.004c-.409.05-.828.02-1.224-.096l-2.925-9.84 9.693-5.874v14.943zM7.809 8.558v-1.07h11.767v1.07H7.81zm13.48 16.21c.006-.166-1.5-.164-1.6-.154-.929.099-1.732.576-2.551.986-.968.484-1.964.345-2.91-.106V10.042l9.692 5.873-2.63 8.853z" fill="#FCD025"/></svg>