<svg width="80" height="80" fill="none" xmlns="http://www.w3.org/2000/svg"><circle cx="40" cy="40" r="40" fill="#478ECC"/><path d="M17.824 39.68l10.806 4.029 4.212 13.553c.183.916 1.282 1.099 2.015.55l6.043-4.946c.55-.549 1.465-.549 2.198 0l10.806 7.876c.732.55 1.831.183 2.014-.733l8.058-38.461c.184-.916-.732-1.832-1.648-1.465L17.824 37.299c-1.099.366-1.099 2.014 0 2.38zm14.469 2.014l21.244-13.003c.367-.183.733.366.367.55l-17.4 16.3c-.549.549-1.098 1.282-1.098 2.197l-.55 4.396c0 .55-.915.732-1.098 0l-2.198-8.059c-.55-.916-.183-2.014.733-2.38z" fill="#fff"/></svg>