<svg width="80" height="80" fill="none" xmlns="http://www.w3.org/2000/svg"><circle cx="40" cy="40" r="40" fill="#D62D30"/><path d="M62 36.899c0-.94-.157-2.035-.157-3.288a216.471 216.471 0 00-.47-3.6c-.315-1.253-.785-2.193-1.727-2.976-.785-.782-1.883-1.252-2.982-1.409C53.054 25.156 47.72 25 40.5 25c-7.219 0-12.712.157-16.164.626-1.099.157-2.197.627-2.982 1.41-.785.782-1.412 1.722-1.726 2.974-.314 1.096-.471 2.192-.471 3.601C19 34.864 19 35.96 19 36.9v7.202c0 .94.157 2.035.157 3.288.157 1.252.314 2.505.47 3.6.315 1.253.785 2.193 1.727 2.976.785.782 1.883 1.252 2.982 1.409 3.61.47 8.945.626 16.164.626 7.219 0 12.712-.157 16.164-.626 1.099-.157 2.197-.627 2.982-1.41.785-.782 1.412-1.722 1.726-2.974.314-1.096.471-2.192.471-3.601C62 46.136 62 45.04 62 44.1v-7.201zm-13.182 4.853L36.42 49.424a1.2 1.2 0 01-.785.313c-.314 0-.47 0-.785-.156-.47-.313-.784-.783-.784-1.41v-15.5c0-.626.314-1.095.784-1.408a1.428 1.428 0 011.57 0l12.398 7.671c.47.314.784.783.784 1.253 0 .47-.314 1.252-.784 1.566z" fill="#fff"/></svg>